<svg width="262" height="32" viewBox="0 0 262 32" fill="none" xmlns="http://www.w3.org/2000/svg">
<path d="M136.935 9.99209L150.709 0.651387C151.337 0.227668 152.077 0 152.83 0C154.939 0 156.65 1.73913 156.65 3.88301C156.65 4.65455 156.426 5.4008 156.009 6.03951L146.827 20.0474C145.62 21.8878 143.666 23.0577 141.52 23.2474C140.717 19.3012 137.662 16.1961 133.787 15.3866C133.973 13.2111 135.124 11.219 136.935 9.99209Z" fill="white"/>
<path fill-rule="evenodd" clip-rule="evenodd" d="M132.48 17.7071C136.362 17.7071 139.51 20.9069 139.51 24.8535C139.51 28.7792 136.396 31.966 132.542 32H125.637L125.586 31.999C124.51 31.9713 123.646 31.0768 123.646 29.9768C123.646 28.8591 124.537 27.9525 125.637 27.9525H126.144C125.699 27.0152 125.45 25.9638 125.45 24.8535C125.451 20.907 128.597 17.7073 132.48 17.7071ZM132.148 18.6566C128.953 18.8851 125.894 23.3596 126.884 25.9168C127.591 27.7432 133.542 28.4742 136.017 27.1501C137.997 26.0907 132.852 24.7138 130.618 24.2723C131.143 22.7958 133.119 19.7891 132.148 18.6566Z" fill="white"/>
<path d="M0 28.8488V1.61553H5.37127V28.8488H0Z" fill="white"/>
<path d="M17.1488 29.1181C15.1026 29.1181 13.3122 28.7078 11.7775 27.8872C10.2429 27.041 9.05353 25.8486 8.20947 24.3099C7.36541 22.7457 6.94339 20.8994 6.94339 18.771C6.94339 16.5913 7.36541 14.7193 8.20947 13.1551C9.07911 11.5652 10.2812 10.3471 11.8159 9.50088C13.3505 8.65465 15.1154 8.23153 17.1104 8.23153C19.1566 8.23153 20.9343 8.66747 22.4433 9.53935C23.9524 10.4112 25.129 11.6293 25.973 13.1935C26.8171 14.7578 27.2391 16.6297 27.2391 18.8094C27.2391 20.9378 26.8171 22.7842 25.973 24.3484C25.1546 25.887 23.9908 27.0666 22.4817 27.8872C20.9982 28.7078 19.2206 29.1181 17.1488 29.1181ZM17.0721 24.1946C18.2486 24.1946 19.195 23.9381 19.9112 23.4253C20.6273 22.9124 21.1389 22.2457 21.4458 21.4251C21.7783 20.5788 21.9446 19.6941 21.9446 18.771C21.9446 17.8478 21.7783 16.9631 21.4458 16.1169C21.1389 15.2706 20.6273 14.5783 19.9112 14.0398C19.2206 13.4756 18.2742 13.1935 17.0721 13.1935C15.9211 13.1935 14.9875 13.4756 14.2713 14.0398C13.5552 14.5783 13.0308 15.2706 12.6983 16.1169C12.3914 16.9631 12.2379 17.8478 12.2379 18.771C12.2379 19.7198 12.3914 20.6045 12.6983 21.4251C13.0308 22.2457 13.5552 22.9124 14.2713 23.4253C14.9875 23.9381 15.9211 24.1946 17.0721 24.1946Z" fill="white"/>
<path d="M35.1668 29.1181C34.246 29.1181 33.3508 29.0027 32.4812 28.7719C31.6371 28.5155 30.8826 28.1308 30.2176 27.6179C29.5526 27.1051 29.0282 26.464 28.6446 25.6947C28.2609 24.9254 28.0691 24.0279 28.0691 23.0021C28.0691 21.6174 28.3504 20.5147 28.9131 19.6941C29.4758 18.8479 30.2304 18.2068 31.1767 17.7709C32.1231 17.3349 33.2102 17.04 34.4379 16.8862C35.6912 16.7323 36.9828 16.6554 38.3129 16.6554H41.2287C41.2287 15.9117 41.088 15.2578 40.8067 14.6937C40.5509 14.1039 40.1544 13.6551 39.6173 13.3474C39.0802 13.014 38.3896 12.8473 37.5455 12.8473C37.0084 12.8473 36.4841 12.9243 35.9725 13.0781C35.4866 13.2064 35.0773 13.3987 34.7448 13.6551C34.4123 13.9115 34.1949 14.2449 34.0926 14.6552H28.6446C28.798 13.5269 29.1561 12.5653 29.7188 11.7703C30.2815 10.9497 30.9849 10.283 31.829 9.77014C32.673 9.25727 33.5938 8.88544 34.5913 8.65465C35.6144 8.39821 36.6631 8.27 37.7374 8.27C40.6788 8.27 42.8529 9.11623 44.2596 10.8087C45.6664 12.4755 46.3698 14.8475 46.3698 17.9247V28.8488H41.5356L41.4589 26.2332C40.8195 27.1307 40.0905 27.7846 39.272 28.1949C38.4791 28.6052 37.7118 28.8617 36.97 28.9642C36.2283 29.0668 35.6272 29.1181 35.1668 29.1181ZM36.3946 24.8485C37.2898 24.8485 38.1082 24.669 38.85 24.3099C39.5917 23.9509 40.18 23.4637 40.6148 22.8483C41.0497 22.2328 41.2671 21.5405 41.2671 20.7712V20.2711H37.5839C37.0468 20.2711 36.5224 20.2968 36.0109 20.348C35.5249 20.3993 35.0773 20.5019 34.6681 20.6558C34.2844 20.784 33.9775 21.0019 33.7473 21.3097C33.5171 21.6174 33.402 22.0277 33.402 22.5406C33.402 23.0534 33.5299 23.4894 33.7857 23.8484C34.067 24.1817 34.4379 24.4382 34.8983 24.6177C35.3587 24.7715 35.8574 24.8485 36.3946 24.8485Z" fill="white"/>
<path d="M56.9726 29.1181C54.9264 29.1181 53.2255 28.6565 51.8699 27.7333C50.5399 26.7845 49.5424 25.528 48.8774 23.9638C48.2123 22.3739 47.8798 20.6173 47.8798 18.694C47.8798 16.6682 48.2379 14.8732 48.9541 13.3089C49.6703 11.719 50.7317 10.4753 52.1385 9.57781C53.5453 8.68029 55.2973 8.23153 57.3947 8.23153C58.1108 8.23153 58.8142 8.32128 59.5048 8.50079C60.221 8.65465 60.8732 8.89826 61.4615 9.23162C62.0753 9.53935 62.5997 9.94964 63.0345 10.4625V1.61553H68.4058V28.8488H63.188L63.1112 26.5794C62.6508 27.1692 62.0881 27.6564 61.4231 28.0411C60.7837 28.4001 60.0931 28.6693 59.3513 28.8488C58.6096 29.0283 57.8167 29.1181 56.9726 29.1181ZM58.0469 24.2715C59.1979 24.2715 60.1315 24.0022 60.8476 23.4637C61.5894 22.9252 62.1393 22.2328 62.4974 21.3866C62.8555 20.5404 63.0345 19.63 63.0345 18.6556C63.0345 17.6555 62.8555 16.7451 62.4974 15.9246C62.1649 15.0783 61.6277 14.4116 60.886 13.9244C60.1698 13.4115 59.2235 13.1551 58.0469 13.1551C56.8703 13.1551 55.924 13.4243 55.2078 13.9628C54.4916 14.5013 53.9801 15.2065 53.6731 16.0784C53.3918 16.9246 53.2511 17.835 53.2511 18.8094C53.2511 19.5275 53.3278 20.2198 53.4813 20.8866C53.6604 21.5276 53.9417 22.1046 54.3254 22.6175C54.709 23.1304 55.2078 23.5406 55.8217 23.8484C56.4355 24.1304 57.1773 24.2715 58.0469 24.2715Z" fill="white"/>
<path d="M79.954 29.1181C77.8311 29.1181 76.0279 28.695 74.5444 27.8487C73.0609 27.0025 71.9227 25.8101 71.1298 24.2715C70.3369 22.7072 69.9404 20.8866 69.9404 18.8094C69.9404 16.7067 70.3497 14.8732 71.1681 13.3089C71.9866 11.719 73.1376 10.4753 74.6211 9.57781C76.1302 8.68029 77.9078 8.23153 79.954 8.23153C81.4887 8.23153 82.8315 8.48797 83.9825 9.00083C85.159 9.5137 86.1438 10.2317 86.9367 11.1549C87.7551 12.078 88.3562 13.1551 88.7399 14.386C89.1491 15.5912 89.3409 16.899 89.3154 18.3094C89.3154 18.6684 89.3026 19.0146 89.277 19.3479C89.2514 19.6813 89.2003 20.0147 89.1235 20.348H75.2733C75.3501 21.1173 75.5675 21.8225 75.9256 22.4636C76.2836 23.1047 76.7824 23.6176 77.4218 24.0022C78.0869 24.3612 78.9053 24.5407 79.8773 24.5407C80.5167 24.5407 81.105 24.4766 81.6421 24.3484C82.1792 24.1946 82.6396 23.9638 83.0233 23.656C83.407 23.3483 83.6755 22.9893 83.829 22.579H89.1235C88.791 24.092 88.1644 25.3357 87.2436 26.3101C86.3484 27.2846 85.2613 28.0026 83.9825 28.4642C82.7036 28.9001 81.3608 29.1181 79.954 29.1181ZM75.3884 16.5785H84.1743C84.1487 15.8861 83.9697 15.245 83.6372 14.6552C83.3302 14.0398 82.8571 13.5525 82.2176 13.1935C81.6038 12.8089 80.8109 12.6166 79.8389 12.6166C78.867 12.6166 78.0485 12.8089 77.3835 13.1935C76.744 13.5782 76.2581 14.0782 75.9256 14.6937C75.6186 15.2835 75.4396 15.9117 75.3884 16.5785Z" fill="white"/>
<path d="M99.183 29.1181C97.1368 29.1181 95.4359 28.6565 94.0803 27.7333C92.7502 26.7845 91.7527 25.528 91.0877 23.9638C90.4227 22.3739 90.0902 20.6173 90.0902 18.694C90.0902 16.6682 90.4483 14.8732 91.1644 13.3089C91.8806 11.719 92.9421 10.4753 94.3488 9.57781C95.7556 8.68029 97.5076 8.23153 99.605 8.23153C100.321 8.23153 101.025 8.32128 101.715 8.50079C102.431 8.65465 103.084 8.89826 103.672 9.23162C104.286 9.53935 104.81 9.94964 105.245 10.4625V1.61553H110.616V28.8488H105.398L105.322 26.5794C104.861 27.1692 104.298 27.6564 103.633 28.0411C102.994 28.4001 102.303 28.6693 101.562 28.8488C100.82 29.0283 100.027 29.1181 99.183 29.1181ZM100.257 24.2715C101.408 24.2715 102.342 24.0022 103.058 23.4637C103.8 22.9252 104.35 22.2328 104.708 21.3866C105.066 20.5404 105.245 19.63 105.245 18.6556C105.245 17.6555 105.066 16.7451 104.708 15.9246C104.375 15.0783 103.838 14.4116 103.096 13.9244C102.38 13.4115 101.434 13.1551 100.257 13.1551C99.0807 13.1551 98.1343 13.4243 97.4181 13.9628C96.702 14.5013 96.1904 15.2065 95.8835 16.0784C95.6021 16.9246 95.4614 17.835 95.4614 18.8094C95.4614 19.5275 95.5382 20.2198 95.6917 20.8866C95.8707 21.5276 96.152 22.1046 96.5357 22.6175C96.9194 23.1304 97.4181 23.5406 98.032 23.8484C98.6458 24.1304 99.3876 24.2715 100.257 24.2715Z" fill="white"/>
<path d="M180.961 29.1181C180.296 29.1181 179.592 29.054 178.851 28.9258C178.134 28.7975 177.418 28.5539 176.702 28.1949C176.011 27.8103 175.359 27.2718 174.745 26.5794L174.707 28.8488H169.451V1.61553H174.822V10.9626C175.589 10.0394 176.536 9.35984 177.661 8.9239C178.812 8.46232 180.002 8.23153 181.229 8.23153C183.224 8.23153 184.861 8.69311 186.14 9.61628C187.419 10.5138 188.365 11.7447 188.979 13.3089C189.619 14.8732 189.938 16.6682 189.938 18.694C189.938 20.6686 189.619 22.4508 188.979 24.0407C188.34 25.6049 187.355 26.8486 186.025 27.7718C184.721 28.6693 183.032 29.1181 180.961 29.1181ZM179.81 24.3099C181.063 24.3099 182.035 24.0279 182.726 23.4637C183.416 22.8996 183.902 22.1815 184.183 21.3097C184.465 20.4378 184.605 19.5275 184.605 18.5786C184.605 17.6298 184.452 16.7451 184.145 15.9246C183.838 15.0783 183.327 14.4116 182.61 13.9244C181.92 13.4115 180.986 13.1551 179.81 13.1551C178.735 13.1551 177.815 13.4243 177.047 13.9628C176.306 14.4757 175.743 15.1553 175.359 16.0015C174.976 16.8477 174.784 17.7581 174.784 18.7325C174.784 19.707 174.95 20.6301 175.282 21.502C175.641 22.3482 176.19 23.0278 176.932 23.5406C177.674 24.0535 178.633 24.3099 179.81 24.3099Z" fill="white"/>
<path d="M191.474 28.8488V8.57772H196.308L196.653 11.001C197.165 10.2317 197.74 9.65474 198.38 9.27009C199.019 8.8598 199.684 8.59054 200.375 8.46232C201.065 8.30846 201.769 8.23153 202.485 8.23153C202.818 8.23153 203.124 8.24435 203.406 8.27C203.687 8.27 203.892 8.27 204.02 8.27V13.4628H202.754C201.551 13.4628 200.503 13.6679 199.608 14.0782C198.712 14.4885 198.022 15.1296 197.536 16.0015C197.075 16.8734 196.845 17.9888 196.845 19.3479V28.8488H191.474Z" fill="white"/>
<path d="M213.787 29.1181C210.82 29.1181 208.531 28.3616 206.919 26.8486C205.334 25.31 204.541 23.0021 204.541 19.9249V8.57772H209.912V19.5403C209.912 20.4634 210.04 21.284 210.296 22.002C210.577 22.6944 210.999 23.2457 211.562 23.656C212.15 24.0663 212.904 24.2715 213.825 24.2715C214.823 24.2715 215.59 24.0535 216.127 23.6176C216.664 23.1816 217.035 22.6047 217.24 21.8866C217.444 21.143 217.547 20.3609 217.547 19.5403V8.57772H222.88V19.9249C222.88 23.1304 222.074 25.4639 220.463 26.9256C218.877 28.3873 216.652 29.1181 213.787 29.1181Z" fill="white"/>
<path d="M233.045 29.1181C232.099 29.1181 231.127 29.0155 230.129 28.8104C229.132 28.6052 228.211 28.259 227.367 27.7718C226.523 27.2589 225.807 26.5794 225.218 25.7332C224.63 24.8613 224.247 23.7843 224.068 22.5021H229.516C229.669 22.9637 229.938 23.3611 230.321 23.6945C230.73 24.0279 231.191 24.2715 231.702 24.4253C232.24 24.5792 232.777 24.6561 233.314 24.6561C233.672 24.6561 234.03 24.6305 234.388 24.5792C234.746 24.5279 235.079 24.4253 235.386 24.2715C235.692 24.1176 235.935 23.9253 236.115 23.6945C236.294 23.4381 236.383 23.1175 236.383 22.7329C236.383 22.3226 236.255 22.002 235.999 21.7713C235.744 21.5405 235.386 21.361 234.925 21.2327C234.465 21.0789 233.94 20.9378 233.352 20.8096C232.303 20.5788 231.178 20.3224 229.976 20.0403C228.774 19.7582 227.738 19.3479 226.868 18.8094C226.51 18.553 226.19 18.2709 225.909 17.9632C225.628 17.6555 225.398 17.3093 225.218 16.9246C225.039 16.54 224.899 16.1425 224.796 15.7322C224.694 15.2963 224.643 14.8347 224.643 14.3475C224.643 13.2448 224.873 12.3088 225.334 11.5395C225.82 10.7446 226.459 10.1035 227.252 9.61628C228.045 9.12905 228.927 8.78287 229.899 8.57772C230.871 8.34693 231.869 8.23153 232.892 8.23153C234.273 8.23153 235.552 8.46232 236.728 8.9239C237.905 9.35984 238.877 10.0522 239.644 11.001C240.412 11.9242 240.885 13.1294 241.064 14.6167H235.923C235.82 14.0526 235.475 13.6038 234.887 13.2705C234.299 12.9115 233.57 12.7319 232.7 12.7319C232.393 12.7319 232.06 12.7576 231.702 12.8089C231.37 12.8602 231.063 12.9499 230.782 13.0781C230.5 13.2064 230.27 13.3859 230.091 13.6166C229.912 13.8218 229.822 14.1039 229.822 14.4629C229.822 14.745 229.899 15.0014 230.053 15.2322C230.232 15.463 230.475 15.6553 230.782 15.8092C231.114 15.963 231.511 16.1041 231.971 16.2323C232.841 16.4374 233.71 16.6297 234.58 16.8093C235.475 16.9631 236.268 17.1298 236.959 17.3093C237.803 17.4888 238.57 17.7837 239.261 18.194C239.977 18.6043 240.552 19.1684 240.987 19.8865C241.447 20.5788 241.678 21.4892 241.678 22.6175C241.678 23.8997 241.422 24.9639 240.91 25.8101C240.399 26.6307 239.708 27.2846 238.839 27.7718C237.994 28.259 237.061 28.6052 236.038 28.8104C235.04 29.0155 234.043 29.1181 233.045 29.1181Z" fill="white"/>
<path d="M242.894 28.8488V1.61553H248.265V10.9241C248.853 10.2317 249.505 9.69321 250.222 9.30856C250.963 8.92391 251.705 8.65465 252.447 8.50079C253.214 8.32128 253.918 8.23153 254.557 8.23153C256.45 8.23153 257.933 8.65465 259.007 9.50088C260.082 10.3471 260.849 11.4882 261.309 12.9243C261.77 14.3603 262 15.9374 262 17.6555V28.8488H256.629V18.4248C256.629 17.8093 256.565 17.1939 256.437 16.5785C256.335 15.963 256.143 15.3989 255.861 14.886C255.58 14.3475 255.184 13.9244 254.672 13.6166C254.161 13.2833 253.483 13.1166 252.639 13.1166C251.846 13.1166 251.168 13.2833 250.605 13.6166C250.043 13.95 249.582 14.3988 249.224 14.9629C248.892 15.5014 248.649 16.1041 248.495 16.7708C248.342 17.4375 248.265 18.1042 248.265 18.771V28.8488H242.894Z" fill="white"/>
</svg>
